Coordinates
version=1
nRows=10
nColumns=40
inDegrees=yes

Units are S.I. units (second, meters, Newtons, ...)
If the header above contains a line with 'inDegrees', this indicates whether rotational values are in degrees (yes) or radians (no).

endheader
time	pelvis_tilt	pelvis_list	pelvis_rotation	pelvis_tx	pelvis_ty	pelvis_tz	hip_flexion_r	hip_adduction_r	hip_rotation_r	knee_angle_r	knee_angle_r_beta	ankle_angle_r	subtalar_angle_r	mtp_angle_r	hip_flexion_l	hip_adduction_l	hip_rotation_l	knee_angle_l	knee_angle_l_beta	ankle_angle_l	subtalar_angle_l	mtp_angle_l	lumbar_extension	lumbar_bending	lumbar_rotation	arm_flex_r	arm_add_r	arm_rot_r	elbow_flex_r	pro_sup_r	wrist_flex_r	wrist_dev_r	arm_flex_l	arm_add_l	arm_rot_l	elbow_flex_l	pro_sup_l	wrist_flex_l	wrist_dev_l
      0.71600000	     14.30071927	     -2.52241402	     -1.62660403	      1.00582685	      0.92592864	     -0.29635696	    -29.71260032	      3.39315548	     -0.98811738	     27.97420406	      0.48824197	    -12.08825141	      0.00000000	      0.00000000	     19.08924885	     -1.04510123	      2.42396156	     24.29860490	      0.42409066	    -19.83765044	      0.00000000	      0.00000000	    -28.01933573	      0.87792375	      6.20591101	     10.45668386	    -16.77321753	     15.83498280	     48.29057106	     76.57311948	      0.00000000	      0.00000000	     -2.01427466	    -19.39743949	     18.31053409	     43.77749959	     79.61980092	      0.00000000	      0.00000000
      0.72000000	     14.45916892	     -2.41977185	     -1.61972487	      1.01273089	      0.92615806	     -0.29643739	    -29.70614359	      3.21541350	     -0.90363069	     28.70823384	      0.50105320	    -13.48083454	      0.00000000	      0.00000000	     18.97162424	     -0.85087515	      2.78698957	     25.17875490	      0.43945217	    -20.04102386	      0.00000000	      0.00000000	    -28.13521344	      0.69771948	      6.12237766	     10.21114579	    -16.59210501	     15.49470340	     48.10501757	     76.60450548	      0.00000000	      0.00000000	     -2.44442543	    -19.48044584	     17.80113464	     44.43095741	     79.66882517	      0.00000000	      0.00000000
      0.72400000	     14.56251155	     -2.20508713	     -1.63017445	      1.01969987	      0.92649562	     -0.29684798	    -29.69088068	      2.95845256	     -0.57669458	     29.36331680	      0.51248656	    -14.59656739	      0.00000000	      0.00000000	     18.83207575	     -0.49327553	      3.22587716	     25.91825222	      0.45235884	    -20.10158174	      0.00000000	      0.00000000	    -28.17620449	      0.44999149	      5.86141805	     10.08218117	    -16.43169313	     15.48127716	     47.82846980	     76.63322130	      0.00000000	      0.00000000	     -2.30163684	    -19.45521490	     17.90773348	     44.01704290	     79.68501718	      0.00000000	      0.00000000
      0.72800000	     14.74006483	     -2.01909153	     -1.48533376	      1.02710633	      0.92695846	     -0.29750663	    -29.69214712	      2.61819095	     -1.25515301	     29.98665443	      0.52336585	    -16.84377951	      0.00000000	      0.00000000	     18.66871395	     -0.17567595	      3.29547570	     26.86525036	      0.46888707	    -19.63003513	      0.00000000	      0.00000000	    -28.20451914	      0.30256180	      5.64965134	      9.78873821	    -16.32386988	     15.32558379	     47.44009087	     76.67009580	      0.00000000	      0.00000000	     -2.30392371	    -19.48149676	     18.11051622	     43.87812543	     79.73909037	      0.00000000	      0.00000000
      0.73200000	     14.86281774	     -1.85141866	     -0.97441939	      1.03413097	      0.92732448	     -0.29799034	    -29.69448856	      2.59122577	     -1.87270008	     30.48189525	      0.53200943	    -18.92855215	      0.00000000	      0.00000000	     18.60638094	      0.24729473	      3.98875076	     27.77037154	      0.48468442	    -19.09277724	      0.00000000	      0.00000000	    -28.25019443	      0.25655381	      5.08931723	      9.48593540	    -16.05930224	     14.98020999	     47.24425740	     76.64490165	      0.00000000	      0.00000000	     -2.34752264	    -19.67052670	     18.18268305	     43.97373396	     79.74407056	      0.00000000	      0.00000000
      0.73600000	     14.94025282	     -1.64662817	     -0.61235777	      1.04169146	      0.92771993	     -0.29849525	    -29.68801871	      2.46127146	     -2.28509733	     30.94368647	      0.54006921	    -20.94414895	      0.00000000	      0.00000000	     18.49670506	      0.66387089	      4.46212131	     28.59849428	      0.49913789	    -18.48370152	      0.00000000	      0.00000000	    -28.19519460	      0.13866528	      4.63433069	      9.14510100	    -15.81033767	     14.46557031	     46.93798914	     76.31042927	      0.00000000	      0.00000000	     -2.47102741	    -19.79775142	     18.18458067	     43.99309008	     79.74171621	      0.00000000	      0.00000000
      0.74000000	     15.07131629	     -1.55674860	     -0.34218583	      1.04906227	      0.92826755	     -0.29870028	    -29.68125222	      2.39587783	     -2.65245543	     31.43751750	      0.54868819	    -23.01905321	      0.00000000	      0.00000000	     18.31446864	      0.90529623	      4.85651319	     29.39756958	      0.51308438	    -17.93830760	      0.00000000	      0.00000000	    -28.19783937	      0.08672427	      4.27135474	      8.84799555	    -15.57994174	     14.63226694	     46.47977401	     77.12821492	      0.00000000	      0.00000000	     -2.53053333	    -19.91790272	     18.23764863	     43.93872038	     79.67349024	      0.00000000	      0.00000000
      0.74400000	     15.28491476	     -1.41805741	     -0.30629258	      1.05632036	      0.92896334	     -0.29877467	    -29.66352920	      2.16627441	     -2.77131770	     32.10929063	      0.56041284	    -24.80052665	      0.00000000	      0.00000000	     17.92939580	      1.16427165	      5.09713011	     30.04586817	      0.52439933	    -17.44673842	      0.00000000	      0.00000000	    -28.30956520	     -0.10044998	      4.14153052	      8.56179515	    -15.40887283	     14.41048495	     46.14916255	     77.22656472	      0.00000000	      0.00000000	     -2.70944726	    -20.04902366	     18.17252714	     44.22913320	     79.67997768	      0.00000000	      0.00000000
      0.74800000	     15.47290737	     -1.26602994	     -0.14240943	      1.06359454	      0.92967187	     -0.29894856	    -29.65848363	      1.99840303	     -2.95482973	     32.66843859	      0.57017181	    -26.59536703	      0.00000000	      0.00000000	     17.58064076	      1.47772409	      5.42541322	     30.72335704	      0.53622374	    -16.84140544	      0.00000000	      0.00000000	    -28.38858077	     -0.25123184	      3.84821411	      8.27337095	    -15.20986103	     14.28093499	     45.86790318	     77.40302340	      0.00000000	      0.00000000	     -2.83486178	    -20.15067824	     18.07984679	     44.30950809	     79.69789391	      0.00000000	      0.00000000
      0.75200000	     15.69765125	     -1.14821344	     -0.01247005	      1.07040065	      0.93053039	     -0.29898908	    -29.62033963	      1.94746680	     -2.74601150	     33.36547845	      0.58233746	    -27.67150725	      0.00000000	      0.00000000	     17.16328948	      1.74614118	      5.78667725	     31.25949918	      0.54558118	    -16.55115137	      0.00000000	      0.00000000	    -28.56427859	     -0.38205783	      3.63807656	      8.04932024	    -15.02167493	     14.10986979	     45.53829305	     77.41748228	      0.00000000	      0.00000000	     -2.84481393	    -20.25407202	     18.02891950	     44.36946679	     79.71000527	      0.00000000	      0.00000000
